<svg width="175" height="57" viewBox="0 0 175 57" fill="none" xmlns="http://www.w3.org/2000/svg">
<path d="M10.872 48C10.536 48 10.26 47.892 10.044 47.676C9.852 47.46 9.756 47.208 9.756 46.92V23.988H11.988V46.92C11.988 47.208 11.88 47.46 11.664 47.676C11.448 47.892 11.184 48 10.872 48ZM2.304 24.852C2.016 24.852 1.764 24.756 1.548 24.564C1.332 24.372 1.224 24.12 1.224 23.808C1.224 23.52 1.332 23.28 1.548 23.088C1.764 22.896 2.016 22.8 2.304 22.8H19.44C19.728 22.8 19.98 22.896 20.196 23.088C20.412 23.28 20.52 23.532 20.52 23.844C20.52 24.156 20.412 24.408 20.196 24.6C19.98 24.768 19.728 24.852 19.44 24.852H2.304ZM23.506 48C23.17 48 22.906 47.892 22.714 47.676C22.522 47.46 22.426 47.208 22.426 46.92V30.792C22.426 30.504 22.522 30.252 22.714 30.036C22.93 29.82 23.194 29.712 23.506 29.712C23.818 29.712 24.07 29.82 24.262 30.036C24.478 30.252 24.586 30.504 24.586 30.792V36.192L24.046 36.3C24.118 35.46 24.322 34.632 24.658 33.816C25.018 32.976 25.498 32.208 26.098 31.512C26.698 30.816 27.406 30.252 28.222 29.82C29.062 29.388 29.998 29.172 31.03 29.172C31.462 29.172 31.882 29.268 32.29 29.46C32.698 29.628 32.902 29.916 32.902 30.324C32.902 30.684 32.806 30.96 32.614 31.152C32.422 31.344 32.194 31.44 31.93 31.44C31.714 31.44 31.474 31.38 31.21 31.26C30.97 31.14 30.646 31.08 30.238 31.08C29.566 31.08 28.894 31.284 28.222 31.692C27.55 32.076 26.938 32.604 26.386 33.276C25.834 33.948 25.39 34.704 25.054 35.544C24.742 36.36 24.586 37.188 24.586 38.028V46.92C24.586 47.208 24.478 47.46 24.262 47.676C24.046 47.892 23.794 48 23.506 48ZM43.785 48.36C41.937 48.36 40.305 47.964 38.889 47.172C37.473 46.38 36.369 45.276 35.577 43.86C34.785 42.444 34.389 40.788 34.389 38.892C34.389 36.852 34.785 35.112 35.577 33.672C36.393 32.232 37.437 31.128 38.709 30.36C40.005 29.568 41.373 29.172 42.813 29.172C43.869 29.172 44.889 29.364 45.873 29.748C46.881 30.108 47.769 30.66 48.537 31.404C49.329 32.124 49.953 33.012 50.409 34.068C50.889 35.124 51.153 36.348 51.201 37.74C51.177 38.028 51.057 38.28 50.841 38.496C50.625 38.688 50.373 38.784 50.085 38.784H35.649L35.217 36.84H49.401L48.933 37.272V36.552C48.837 35.424 48.477 34.464 47.853 33.672C47.229 32.88 46.473 32.28 45.585 31.872C44.697 31.464 43.773 31.26 42.813 31.26C42.093 31.26 41.349 31.404 40.581 31.692C39.837 31.98 39.153 32.436 38.529 33.06C37.929 33.66 37.437 34.44 37.053 35.4C36.669 36.336 36.477 37.452 36.477 38.748C36.477 40.164 36.765 41.448 37.341 42.6C37.917 43.752 38.745 44.664 39.825 45.336C40.929 46.008 42.237 46.344 43.749 46.344C44.589 46.344 45.345 46.224 46.017 45.984C46.689 45.744 47.277 45.432 47.781 45.048C48.285 44.64 48.705 44.22 49.041 43.788C49.305 43.572 49.569 43.464 49.833 43.464C50.073 43.464 50.277 43.56 50.445 43.752C50.637 43.944 50.733 44.16 50.733 44.4C50.733 44.688 50.613 44.94 50.373 45.156C49.653 46.02 48.717 46.776 47.565 47.424C46.413 48.048 45.153 48.36 43.785 48.36ZM64.5005 29.172C66.0845 29.172 67.3445 29.496 68.2805 30.144C69.2405 30.768 69.9245 31.632 70.3325 32.736C70.7645 33.816 70.9805 35.016 70.9805 36.336V46.92C70.9805 47.208 70.8725 47.46 70.6565 47.676C70.4405 47.892 70.1885 48 69.9005 48C69.5645 48 69.3005 47.892 69.1085 47.676C68.9165 47.46 68.8205 47.208 68.8205 46.92V36.444C68.8205 35.484 68.6645 34.608 68.3525 33.816C68.0405 33.024 67.5245 32.388 66.8045 31.908C66.1085 31.428 65.1845 31.188 64.0325 31.188C63.0005 31.188 62.0165 31.428 61.0805 31.908C60.1685 32.388 59.4245 33.024 58.8485 33.816C58.2725 34.608 57.9845 35.484 57.9845 36.444V46.92C57.9845 47.208 57.8765 47.46 57.6605 47.676C57.4445 47.892 57.1925 48 56.9045 48C56.5685 48 56.3045 47.892 56.1125 47.676C55.9205 47.46 55.8245 47.208 55.8245 46.92V30.792C55.8245 30.504 55.9205 30.252 56.1125 30.036C56.3285 29.82 56.5925 29.712 56.9045 29.712C57.2165 29.712 57.4685 29.82 57.6605 30.036C57.8765 30.252 57.9845 30.504 57.9845 30.792V33.816L57.1565 35.112C57.2045 34.344 57.4445 33.612 57.8765 32.916C58.3325 32.196 58.9085 31.56 59.6045 31.008C60.3005 30.432 61.0685 29.988 61.9085 29.676C62.7725 29.34 63.6365 29.172 64.5005 29.172ZM91.721 21.36C92.033 21.36 92.285 21.468 92.477 21.684C92.693 21.876 92.801 22.128 92.801 22.44V46.92C92.801 47.208 92.693 47.46 92.477 47.676C92.261 47.892 92.009 48 91.721 48C91.409 48 91.145 47.892 90.929 47.676C90.737 47.46 90.641 47.208 90.641 46.92V42.636L91.253 42.132C91.253 42.804 91.073 43.512 90.713 44.256C90.353 44.976 89.837 45.648 89.165 46.272C88.517 46.896 87.749 47.4 86.861 47.784C85.997 48.168 85.061 48.36 84.053 48.36C82.445 48.36 80.993 47.94 79.697 47.1C78.425 46.26 77.417 45.12 76.673 43.68C75.929 42.24 75.557 40.596 75.557 38.748C75.557 36.924 75.929 35.292 76.673 33.852C77.417 32.388 78.425 31.248 79.697 30.432C80.969 29.592 82.409 29.172 84.017 29.172C85.001 29.172 85.937 29.352 86.825 29.712C87.713 30.072 88.493 30.564 89.165 31.188C89.861 31.812 90.401 32.532 90.785 33.348C91.193 34.14 91.397 34.968 91.397 35.832L90.641 35.292V22.44C90.641 22.152 90.737 21.9 90.929 21.684C91.145 21.468 91.409 21.36 91.721 21.36ZM84.233 46.344C85.529 46.344 86.657 46.02 87.617 45.372C88.601 44.7 89.369 43.8 89.921 42.672C90.497 41.52 90.785 40.212 90.785 38.748C90.785 37.308 90.497 36.024 89.921 34.896C89.369 33.744 88.601 32.844 87.617 32.196C86.633 31.524 85.505 31.188 84.233 31.188C82.985 31.188 81.857 31.524 80.849 32.196C79.865 32.844 79.085 33.744 78.509 34.896C77.957 36.024 77.681 37.308 77.681 38.748C77.681 40.188 77.957 41.484 78.509 42.636C79.085 43.788 79.865 44.7 80.849 45.372C81.857 46.02 82.985 46.344 84.233 46.344ZM100.557 46.92C100.557 47.208 100.449 47.46 100.233 47.676C100.017 47.892 99.765 48 99.477 48C99.165 48 98.901 47.892 98.685 47.676C98.493 47.46 98.397 47.208 98.397 46.92V30.36C98.397 30.072 98.493 29.82 98.685 29.604C98.901 29.388 99.165 29.28 99.477 29.28C99.789 29.28 100.041 29.388 100.233 29.604C100.449 29.82 100.557 30.072 100.557 30.36V46.92ZM99.477 26.868C98.973 26.868 98.589 26.76 98.325 26.544C98.085 26.304 97.965 25.968 97.965 25.536V25.176C97.965 24.744 98.097 24.42 98.361 24.204C98.649 23.964 99.033 23.844 99.513 23.844C99.969 23.844 100.317 23.964 100.557 24.204C100.821 24.42 100.953 24.744 100.953 25.176V25.536C100.953 25.968 100.821 26.304 100.557 26.544C100.317 26.76 99.957 26.868 99.477 26.868ZM114.844 29.172C116.428 29.172 117.688 29.496 118.624 30.144C119.584 30.768 120.268 31.632 120.676 32.736C121.108 33.816 121.324 35.016 121.324 36.336V46.92C121.324 47.208 121.216 47.46 121 47.676C120.784 47.892 120.532 48 120.244 48C119.908 48 119.644 47.892 119.452 47.676C119.26 47.46 119.164 47.208 119.164 46.92V36.444C119.164 35.484 119.008 34.608 118.696 33.816C118.384 33.024 117.868 32.388 117.148 31.908C116.452 31.428 115.528 31.188 114.376 31.188C113.344 31.188 112.36 31.428 111.424 31.908C110.512 32.388 109.768 33.024 109.192 33.816C108.616 34.608 108.328 35.484 108.328 36.444V46.92C108.328 47.208 108.22 47.46 108.004 47.676C107.788 47.892 107.536 48 107.248 48C106.912 48 106.648 47.892 106.456 47.676C106.264 47.46 106.168 47.208 106.168 46.92V30.792C106.168 30.504 106.264 30.252 106.456 30.036C106.672 29.82 106.936 29.712 107.248 29.712C107.56 29.712 107.812 29.82 108.004 30.036C108.22 30.252 108.328 30.504 108.328 30.792V33.816L107.5 35.112C107.548 34.344 107.788 33.612 108.22 32.916C108.676 32.196 109.252 31.56 109.948 31.008C110.644 30.432 111.412 29.988 112.252 29.676C113.116 29.34 113.98 29.172 114.844 29.172ZM134.649 29.172C135.729 29.172 136.725 29.364 137.637 29.748C138.549 30.108 139.341 30.588 140.013 31.188C140.709 31.764 141.249 32.388 141.633 33.06C142.017 33.708 142.209 34.332 142.209 34.932L141.597 34.068V30.72C141.597 30.408 141.693 30.144 141.885 29.928C142.101 29.712 142.365 29.604 142.677 29.604C143.013 29.604 143.277 29.712 143.469 29.928C143.661 30.144 143.757 30.408 143.757 30.72V46.308C143.757 48.228 143.361 49.848 142.569 51.168C141.777 52.488 140.697 53.484 139.329 54.156C137.985 54.852 136.449 55.2 134.721 55.2C133.881 55.2 132.993 55.092 132.057 54.876C131.145 54.66 130.353 54.384 129.681 54.048C129.033 53.712 128.673 53.364 128.601 53.004C128.409 52.788 128.313 52.572 128.313 52.356C128.337 52.164 128.445 51.996 128.637 51.852C128.877 51.684 129.129 51.66 129.393 51.78C129.657 51.924 130.053 52.104 130.581 52.32C130.821 52.392 131.145 52.5 131.553 52.644C131.961 52.788 132.441 52.908 132.993 53.004C133.569 53.124 134.169 53.184 134.793 53.184C136.953 53.184 138.621 52.56 139.797 51.312C140.997 50.088 141.597 48.468 141.597 46.452V42.996L141.993 43.104C141.777 43.968 141.417 44.724 140.913 45.372C140.433 46.02 139.857 46.572 139.185 47.028C138.513 47.46 137.781 47.784 136.989 48C136.221 48.24 135.453 48.36 134.685 48.36C133.029 48.36 131.541 47.94 130.221 47.1C128.901 46.26 127.845 45.12 127.053 43.68C126.285 42.24 125.901 40.596 125.901 38.748C125.901 36.924 126.285 35.292 127.053 33.852C127.845 32.388 128.889 31.248 130.185 30.432C131.505 29.592 132.993 29.172 134.649 29.172ZM134.901 31.188C133.581 31.188 132.393 31.524 131.337 32.196C130.305 32.844 129.489 33.744 128.889 34.896C128.313 36.024 128.025 37.308 128.025 38.748C128.025 40.188 128.313 41.484 128.889 42.636C129.489 43.788 130.305 44.7 131.337 45.372C132.393 46.02 133.581 46.344 134.901 46.344C136.221 46.344 137.397 46.02 138.429 45.372C139.461 44.724 140.277 43.836 140.877 42.708C141.477 41.556 141.777 40.236 141.777 38.748C141.777 37.26 141.477 35.952 140.877 34.824C140.277 33.672 139.461 32.784 138.429 32.16C137.397 31.512 136.221 31.188 134.901 31.188Z" fill="#1D3557"/>
<path d="M155.695 28.4609L150.305 27.1719L152.25 9.875H171.422V15.3359H157.805L156.961 22.9062C157.414 22.6406 158.102 22.3594 159.023 22.0625C159.945 21.75 160.977 21.5938 162.117 21.5938C163.773 21.5938 165.242 21.8516 166.523 22.3672C167.805 22.8828 168.891 23.6328 169.781 24.6172C170.688 25.6016 171.375 26.8047 171.844 28.2266C172.312 29.6484 172.547 31.2578 172.547 33.0547C172.547 34.5703 172.312 36.0156 171.844 37.3906C171.375 38.75 170.664 39.9688 169.711 41.0469C168.758 42.1094 167.562 42.9453 166.125 43.5547C164.688 44.1641 162.984 44.4688 161.016 44.4688C159.547 44.4688 158.125 44.25 156.75 43.8125C155.391 43.375 154.164 42.7266 153.07 41.8672C151.992 41.0078 151.125 39.9688 150.469 38.75C149.828 37.5156 149.492 36.1094 149.461 34.5312H156.164C156.258 35.5 156.508 36.3359 156.914 37.0391C157.336 37.7266 157.891 38.2578 158.578 38.6328C159.266 39.0078 160.07 39.1953 160.992 39.1953C161.852 39.1953 162.586 39.0312 163.195 38.7031C163.805 38.375 164.297 37.9219 164.672 37.3438C165.047 36.75 165.32 36.0625 165.492 35.2812C165.68 34.4844 165.773 33.625 165.773 32.7031C165.773 31.7812 165.664 30.9453 165.445 30.1953C165.227 29.4453 164.891 28.7969 164.438 28.25C163.984 27.7031 163.406 27.2812 162.703 26.9844C162.016 26.6875 161.211 26.5391 160.289 26.5391C159.039 26.5391 158.07 26.7344 157.383 27.125C156.711 27.5156 156.148 27.9609 155.695 28.4609Z" fill="#E63946"/>
</svg>
